<svg id="icons" height="512" viewBox="0 0 64 64" width="512" xmlns="http://www.w3.org/2000/svg"><path d="m5.18457 59.46289a1 1 0 0 1 -.51557-1.85742l3.5351-2.12109a1 1 0 1 1 1.0293 1.71484l-3.53516 2.12109a.99629.99629 0 0 1 -.51367.14258z"/><path d="m4.47559 58.75586a1 1 0 0 1 -.85645-1.51465l2.12109-3.53516a1 1 0 0 1 1.71485 1.0293l-2.12108 3.53516a.99893.99893 0 0 1 -.85841.48535z"/><path d="m5.18359 59.46289a.99678.99678 0 0 1 -.707-.293l-.707-.707a.99989.99989 0 1 1 1.41406-1.41406l.707.707a1 1 0 0 1 -.707 1.707z"/><path d="m1.001 62.93848a1 1 0 0 1 -.707-1.707l3.8291-3.82911a.99989.99989 0 1 1 1.41406 1.41407l-3.82916 3.82907a.99676.99676 0 0 1 -.707.29297z"/><path d="m8.71875 57.3418a1 1 0 0 1 -.707-1.707l5.65725-5.65726a.99989.99989 0 1 1 1.414 1.41406l-5.65722 5.65723a.99676.99676 0 0 1 -.70703.29297z"/><path d="m6.59766 55.2207a1 1 0 0 1 -.707-1.707l5.65625-5.65722a.99989.99989 0 1 1 1.41406 1.41406l-5.65628 5.65719a.99672.99672 0 0 1 -.70703.29297z"/><path d="m15.083 52.3916a1.00052 1.00052 0 0 1 -.707-.293l-3.53614-3.53515a.99975.99975 0 0 1 -.24123-1.02345l1.415-4.24219a.99568.99568 0 0 1 .24121-.39062l8.48438-8.48535a.99559.99559 0 0 1 .39062-.24122l4.24317-1.41455a.99688.99688 0 0 1 1.02343.2417l3.5352 3.53523a.9997.9997 0 0 1 .24121 1.02344l-1.41406 4.24316a.99579.99579 0 0 1 -.24121.39063l-8.48535 8.48437a.98463.98463 0 0 1 -.39063.24121l-4.24219 1.41406a.985.985 0 0 1 -.31641.05173zm-2.3916-4.80566 2.66113 2.66113 3.43262-1.14355 8.15136-8.15039 1.14356-3.43262-2.66107-2.66113-3.43262 1.14355-8.15044 8.15137z"/><path d="m25.64355 24.86084a.9968.9968 0 0 1 -.707-.293l-3.53613-3.53564a.99964.99964 0 0 1 0-1.41407l4.9502-4.9497a.99927.99927 0 0 1 .707-.293.99928.99928 0 0 1 .707.293l3.53518 3.53567a.99962.99962 0 0 1 0 1.41406l-4.94921 4.94971a.9968.9968 0 0 1 -.70704.29297zm-2.12207-4.53564 2.12207 2.12158 3.53516-3.53565-2.12109-2.12158z"/><path d="m31.2998 22.03271a.99679.99679 0 0 1 -.707-.293l-1.41409-1.41451a.99989.99989 0 1 1 1.41406-1.41407l1.41407 1.41455a1 1 0 0 1 -.707 1.707z"/><path d="m35.543 33.3457a.99573.99573 0 0 1 -.707-.292l-9.19239-9.19287a.99989.99989 0 0 1 1.41407-1.41406l9.19232 9.19239a.99927.99927 0 0 1 -.707 1.70654z"/><path d="m28.51758 37.543a.99676.99676 0 0 1 -.707-.293l-2.1211-2.12109a.99965.99965 0 0 1 0-1.41407l5.61133-5.61132a.99928.99928 0 0 1 .707-.293.99927.99927 0 0 1 .707.293l2.1211 2.12158a.99964.99964 0 0 1 0 1.41406l-5.6113 5.61084a.99676.99676 0 0 1 -.70703.293zm-.707-3.12109.707.707 4.19726-4.19678-.707-.70752z"/><path d="m34.12988 31.93262a1.00016 1.00016 0 0 1 -.416-1.91016l11.48535-5.24267a.99987.99987 0 1 1 .83008 1.81933l-11.48531 5.24268a.99431.99431 0 0 1 -.41412.09082z"/><path d="m36.957 22.03271h-5.6572a1 1 0 1 1 0-2h5.6572a1 1 0 0 1 0 2z"/><path d="m53.09961 34.1748a.99675.99675 0 0 1 -.707-.293l-7.48535-7.48536a.99989.99989 0 0 1 1.41406-1.41406l7.48535 7.48535a1 1 0 0 1 -.707 1.707z"/><path d="m60.16992 27.10352a.99676.99676 0 0 1 -.707-.293l-7.07031-7.0708a.99989.99989 0 1 1 1.41406-1.41407l7.07031 7.0708a1 1 0 0 1 -.707 1.707z"/><path d="m51.68457 35.58887a1 1 0 0 1 -.707-1.707l9.90039-9.89942a.99989.99989 0 0 1 1.41404 1.41403l-9.9004 9.89942a.99676.99676 0 0 1 -.70703.29297z"/><path d="m54.51367 18.61816a1 1 0 0 1 -.707-1.707 3.003 3.003 0 0 0 0-4.24267.99989.99989 0 0 1 1.41406-1.41407 5.00586 5.00586 0 0 1 0 7.07081.99675.99675 0 0 1 -.70706.29293z"/><path d="m53.09961 20.03271a1 1 0 0 1 -.707-1.707l1.41406-1.41455a.99989.99989 0 1 1 1.41403 1.41404l-1.41406 1.41455a.99675.99675 0 0 1 -.70703.29296z"/><path d="m54.51367 12.96143a1 1 0 0 1 -.707-1.707l6.36423-6.3638a.99989.99989 0 1 1 1.4141 1.41406l-6.3643 6.36377a.99676.99676 0 0 1 -.70703.29297z"/><path d="m48.85645 11.54736a1 1 0 0 1 -.707-1.707l8.48532-8.48536a.99989.99989 0 1 1 1.41406 1.414l-8.48535 8.48535a.99676.99676 0 0 1 -.70703.29301z"/><path d="m60.87793 6.59766a.99676.99676 0 0 1 -.707-.293l-3.53616-3.53566a.99989.99989 0 0 1 1.41406-1.414l3.53617 3.53563a1 1 0 0 1 -.707 1.707z"/><path d="m57.3418 10.13281a.99672.99672 0 0 1 -.707-.293l-3.53519-3.53512a.99989.99989 0 0 1 1.41406-1.41406l3.53516 3.53515a1 1 0 0 1 -.707 1.707z"/><path d="m39.78516 24.86084a.99676.99676 0 0 1 -.707-.293l-2.82816-2.82809a.99989.99989 0 0 1 1.41406-1.41407l2.82813 2.82813a1 1 0 0 1 -.707 1.707z"/><path d="m48.85645 15.79a1 1 0 0 1 -.707-1.707 1.9975 1.9975 0 0 0 0-2.82862.99989.99989 0 0 1 1.41407-1.41406 3.99678 3.99678 0 0 1 0 5.65674.9968.9968 0 0 1 -.70707.29294z"/><path d="m39.78516 24.86084a1 1 0 0 1 -.707-1.707l9.07128-9.0708a.99989.99989 0 0 1 1.41407 1.41406l-9.07129 9.0708a.99676.99676 0 0 1 -.70706.29294z"/><path d="m37.66406 22.73975a1 1 0 0 1 -.707-1.707l11.19235-11.19242a.99989.99989 0 0 1 1.41407 1.41406l-11.19239 11.19239a.99676.99676 0 0 1 -.70703.29297z"/><path d="m35.542 22.03271a.99989.99989 0 0 1 -.89355-1.44726l2.82812-5.65723a1.00012 1.00012 0 0 1 1.78907.89453l-2.82814 5.65725a.9999.9999 0 0 1 -.8955.55271z"/><path d="m32.71387 22.03271a.99989.99989 0 0 1 -.89356-1.44726l5.65625-11.314a1.00012 1.00012 0 0 1 1.78907.89454l-5.65625 11.31401a.99992.99992 0 0 1 -.89551.55271z"/><path d="m19.3252 50.97754a.9968.9968 0 0 1 -.707-.293l-6.36328-6.36328a.99989.99989 0 0 1 1.41408-1.41403l6.36328 6.36328a1 1 0 0 1 -.707 1.707z"/><path d="m22.1543 48.14941a.99675.99675 0 0 1 -.707-.293l-6.3643-6.36422a.99989.99989 0 0 1 1.41406-1.41406l6.36426 6.36425a1 1 0 0 1 -.707 1.707z"/><path d="m24.98242 45.32129a.99676.99676 0 0 1 -.707-.293l-6.36426-6.36426a.99989.99989 0 0 1 1.41404-1.41403l6.36425 6.36426a1 1 0 0 1 -.707 1.707z"/><path d="m27.81055 42.49316a.99675.99675 0 0 1 -.707-.293l-6.36426-6.36426a.99989.99989 0 0 1 1.41406-1.41406l6.36426 6.36425a1 1 0 0 1 -.707 1.707z"/><path d="m55.92773 37.00293a.9968.9968 0 0 1 -.707-.293l-2.82812-2.82812a.99964.99964 0 0 1 0-1.41407l2.12109-2.12158a1.02932 1.02932 0 0 1 1.41406 0l2.82813 2.82861a.99965.99965 0 0 1 0 1.41407l-2.12112 2.12116a.9968.9968 0 0 1 -.70704.29293zm-1.41406-3.82813 1.41406 1.41407.707-.707-1.41403-1.4141z"/><path d="m60.87793 32.05322a.99672.99672 0 0 1 -.707-.293l-2.8291-2.82812a.99963.99963 0 0 1 0-1.41406l2.12109-2.12159a1.02835 1.02835 0 0 1 1.41406 0l2.8291 2.82862a.99963.99963 0 0 1 0 1.41406l-2.12108 2.12112a.99672.99672 0 0 1 -.70707.29297zm-1.415-3.82812 1.415 1.41406.707-.707-1.415-1.41455z"/></svg>