<svg id="Capa_1" enable-background="new 0 0 511.98 511.98" height="512" viewBox="0 0 511.98 511.98" width="512" xmlns="http://www.w3.org/2000/svg"><g id="XMLID_869_"><g id="XMLID_2_"><path id="XMLID_257_" d="m470.4 8.645c-21.635-15.148-51.558-9.87-66.706 11.762l-66.353 94.762-20.134-14.098c-4.525-3.168-10.76-2.067-13.927 2.456-3.168 4.524-2.068 10.76 2.456 13.927l21.569 15.103c-27.746.208-53.801 11.103-73.443 30.746l-6.716 6.716-6.716-6.716c-3.392-3.392-7.005-6.532-10.801-9.413 13.996-8.287 26.099-19.483 35.546-33.038 13.379-19.196 20.451-41.751 20.451-65.229 0-5.523-4.477-10-10-10-27.696 0-53.963 10.069-74.365 27.562-.672-1.709-1.477-3.391-2.423-5.03-7.549-13.074-22.389-19.881-36.938-18.103-5.652-13.622-18.836-22.914-34.21-22.914-15.097 0-28.41 9.444-34.147 22.938-14.628-1.917-29.263 4.855-36.949 18.169-7.548 13.074-6.025 29.326 2.792 41.042-8.971 11.705-10.426 27.769-2.739 41.083.813 1.407 1.725 2.727 2.697 3.986-21.66 3.825-38.17 22.768-38.17 45.508v84.225c0 31.981 26.019 58 58 58h43.04l34.956 34.956c-20.543 38.643-34.913 80.033-42.726 123.153-.696 3.841.907 7.735 4.104 9.974 1.716 1.202 3.724 1.809 5.736 1.809 1.737 0 3.479-.452 5.041-1.363 33.318-19.446 63.727-43.299 90.544-70.969 7.743 6.932 17.51 10.402 27.279 10.402 10.48 0 20.961-3.989 28.94-11.968l23.542-23.542h127.265c25.489 0 46.226-20.737 46.226-46.226v-84.225c0-25.833-16.98-47.767-40.362-55.249-.764-9.308-2.745-18.374-5.861-27.007 1.075.378 2.191.57 3.302.57 3.152 0 6.255-1.487 8.2-4.265 3.168-4.524 2.068-10.76-2.456-13.927l-20.134-14.098 66.353-94.762c15.146-21.634 9.87-51.558-11.763-66.707zm-216.182 182.587 13.787-13.788c16.055-16.056 37.402-24.897 60.108-24.897s44.053 8.842 60.108 24.898c13.288 13.288 21.636 30.282 24.107 48.644h-330.364c2.237-16.624 9.304-32.117 20.485-44.763 6.638 6.271 15.541 10.062 25.345 10.062 15.097 0 28.41-9.445 34.147-22.938 11.845 1.551 23.694-2.598 31.856-11.303 12.17 4.179 23.31 11.117 32.491 20.299l13.787 13.787c3.905 3.905 10.237 3.905 14.143-.001zm10.828-125.013c-3.68 33.332-24.594 61.99-55.635 75.624-2.099-.949-4.229-1.83-6.388-2.639 2.047-10.389-.469-21.366-6.898-29.929 15.336-24.079 40.749-39.868 68.921-43.056zm-191.132 12.026c4.396-7.612 14.279-10.568 22.5-6.729 2.961 1.384 6.412 1.231 9.241-.406 2.829-1.638 4.679-4.554 4.955-7.812.767-9.063 8.27-16.161 17.08-16.161 8.791 0 16.292 7.081 17.078 16.121.283 3.256 2.14 6.169 4.972 7.8s6.283 1.774 9.242.385c8.231-3.868 18.131-.919 22.536 6.711 4.395 7.613 2.013 17.65-5.422 22.85-2.679 1.874-4.273 4.938-4.269 8.206s1.604 6.329 4.287 8.196c7.465 5.196 9.862 15.243 5.457 22.873-4.395 7.614-14.279 10.569-22.5 6.729-2.962-1.383-6.413-1.231-9.241.406-2.829 1.638-4.679 4.554-4.955 7.812-.767 9.062-8.27 16.161-17.08 16.161-8.791 0-16.292-7.081-17.078-16.121-.283-3.256-2.14-6.169-4.972-7.8-1.54-.887-3.263-1.334-4.991-1.334-1.449 0-2.901.315-4.251.949-8.234 3.867-18.131.918-22.537-6.711-4.395-7.613-2.014-17.649 5.422-22.85 2.679-1.873 4.272-4.937 4.269-8.206s-1.604-6.329-4.287-8.196c-7.464-5.196-9.861-15.243-5.456-22.873zm-6.515 95.394h15.458c-11.599 15.072-18.834 32.907-20.996 51.857-11.81-2.549-20.688-13.071-20.688-25.632 0-14.461 11.765-26.225 26.226-26.225zm71.502 307.462c7.461-30.962 18.543-60.854 33.086-89.239l33.693 33.693c-20.22 20.889-42.587 39.499-66.779 55.546zm287.993-86.561h-107.265l52.451-52.451h54.814c14.461 0 26.226 11.765 26.226 26.225-.001 14.461-11.765 26.226-26.226 26.226zm26.225-110.451v46.189c-7.457-5.158-16.492-8.189-26.226-8.189h-134.747c-5.523 0-10 4.477-10 10s4.477 10 10 10h51.648l-81.85 81.85c-8.16 8.159-21.437 8.16-29.596 0l-81.85-81.85h51.647c5.523 0 10-4.477 10-10s-4.477-10-10-10h-122.972c-20.953 0-38-17.047-38-38v-46.189c7.457 5.158 16.492 8.189 26.226 8.189h347.721c20.953 0 37.999 17.047 37.999 38zm12.66-220.21-66.353 94.762-45.702-32.001 66.353-94.762c8.822-12.6 26.251-15.672 38.851-6.851 12.6 8.824 15.673 26.253 6.851 38.852z"/><path id="XMLID_268_" d="m442.646 37.87c-2.63 0-5.21 1.07-7.07 2.93s-2.93 4.44-2.93 7.07 1.07 5.21 2.93 7.07 4.44 2.93 7.07 2.93 5.21-1.07 7.07-2.93 2.93-4.44 2.93-7.07-1.07-5.21-2.93-7.07-4.44-2.93-7.07-2.93z"/><path id="XMLID_269_" d="m127.746 119.26c2.63 0 5.2-1.06 7.07-2.93 1.86-1.86 2.93-4.44 2.93-7.07s-1.07-5.21-2.93-7.07-4.44-2.93-7.07-2.93c-2.64 0-5.22 1.07-7.07 2.93-1.87 1.86-2.93 4.44-2.93 7.07 0 2.64 1.06 5.21 2.93 7.07 1.86 1.87 4.43 2.93 7.07 2.93z"/><path id="XMLID_270_" d="m247.146 322.09c-2.63 0-5.21 1.07-7.07 2.93s-2.93 4.44-2.93 7.07 1.07 5.21 2.93 7.07 4.44 2.93 7.07 2.93 5.21-1.07 7.07-2.93 2.93-4.44 2.93-7.07-1.07-5.21-2.93-7.07-4.44-2.93-7.07-2.93z"/></g></g></svg>